HIERARCHY
ROOT Hips
{
    OFFSET 0.0 0.0 0.0
    CHANNELS 6 Xposition Yposition Zposition Zrotation Xrotation Yrotation
    JOINT Spine
    {
        OFFSET 0.0 24.99717550194369 0.0
        CHANNELS 3 Zrotation Xrotation Yrotation
        JOINT Chest
        {
            OFFSET 0.0 24.997175501943687 0.0
            CHANNELS 3 Zrotation Xrotation Yrotation
            JOINT Head
            {
                OFFSET 0.0 18.14695978361579 0.0
                CHANNELS 3 Zrotation Xrotation Yrotation
            }
            JOINT LeftUpperArm
            {
                OFFSET 16.4291351110527 0.0 0.0
                CHANNELS 3 Zrotation Xrotation Yrotation
                JOINT LeftLowerArm
                {
                    OFFSET 23.871829223782157 0.0 0.0
                    CHANNELS 3 Zrotation Xrotation Yrotation
                    JOINT LeftHand
                    {
                        OFFSET 23.021051914356576 0.0 0.0
                        CHANNELS 3 Zrotation Xrotation Yrotation
                    }
                    End Site
                    {
                    OFFSET 6.517608341232653 0.0 0.0
                    }
                }
            }
            JOINT RightUpperArm
            {
                OFFSET -16.4291351110527 0.0 0.0
                CHANNELS 3 Zrotation Xrotation Yrotation
                JOINT RightLowerArm
                {
                    OFFSET 23.871829223782157 0.0 0.0
                    CHANNELS 3 Zrotation Xrotation Yrotation
                    JOINT RightHand
                    {
                        OFFSET 23.021051914356576 0.0 0.0
                        CHANNELS 3 Zrotation Xrotation Yrotation
                    }
                    End Site
                    {
                    OFFSET 6.517608341232653 0.0 0.0
                    }
                }
            }
        }
    }
    JOINT LeftUpperLeg
    {
        OFFSET 9.053016085917449 0.0 0.0
        CHANNELS 3 Zrotation Xrotation Yrotation
        JOINT LeftLowerLeg
        {
            OFFSET 37.82886434284703 0.0 0.0
            CHANNELS 3 Zrotation Xrotation Yrotation
            JOINT LeftFootAnkle
            {
                OFFSET 40.37157936307976 0.0 0.0
                CHANNELS 3 Zrotation Xrotation Yrotation
                End Site
                {
                OFFSET 11.283376939873094 0.0 0.0
                }
            }
        }
    }
    JOINT RightUpperLeg
    {
        OFFSET -9.053016085917449 0.0 0.0
        CHANNELS 3 Zrotation Xrotation Yrotation
        JOINT RightLowerLeg
        {
            OFFSET 37.82886434284703 0.0 0.0
            CHANNELS 3 Zrotation Xrotation Yrotation
            JOINT RightFootAnkle
            {
                OFFSET 40.37157936307976 0.0 0.0
                CHANNELS 3 Zrotation Xrotation Yrotation
                End Site
                {
                OFFSET 11.283376939873094 0.0 0.0
                }
            }
        }
    }
}
MOTION
Frames: 7
Frame Time: 0.03333333333333333
-0.13673777226311123 -0.19259780941782867 0.08224393816044466 -3.0853157382844847 14.540355800773561 14.261419248621635 -3.378787697238252 1.034325967456354 -13.29946613436855 -3.04570674323032 1.797502548814237 -13.343570216909406 -38.92918815594399 -5.025877434036761 -122.50065773650995 -165.3489293914904 28.352623672676916 162.43525443346888 -174.86930872708984 37.53890256108195 180.0 -24.61124519994418 -46.31228669051715 -30.991748318263014 29.16257120370779 5.172098419595297 -149.74942809030227 21.73386701575425 83.15472889077908 1.0177774980683254e-13 33.12200707141009 26.454351414509695 164.978872690438 -151.81219627960252 -66.03370480301719 -66.55035083173081 -154.66936529018955 -10.839557796931604 180.0 -112.66877693922234 31.93863350372186 180.0 123.32982567497557 -65.61701902997083 -155.49998851647604 -162.35865859036252 -34.006676683114044 180.0 -89.35727469796255 -0.7406944804715117 180.0
-0.13983023739100225 -0.19012023597572159 0.08198114798489492 -3.0020360244038886 14.45331984814746 14.289038887502985 -3.1967387079076395 1.0077414905357143 -13.316510415199993 -2.874619561564326 1.7290822628815494 -13.357798528889047 -39.55921652180016 -5.230304014641301 -122.41104765970165 -163.9307081713876 34.668742393327946 161.78394840930264 -174.73423865310806 29.60333475853806 180.0 -25.399392199744316 -48.18758366183368 -33.42923855850848 28.83315415615777 5.427886415062162 -149.67731403241464 21.984991845466467 83.0975849512192 -0.0 34.323340597157696 27.189989408039413 163.38823687593657 -156.05483331672178 -69.85606510728196 -69.98538099748573 -154.3464605040276 -19.343514661864365 180.0 -112.28922734944669 32.38648903939909 180.0 118.86874994967128 -61.33689642398289 -159.49032986135583 -161.22488545879665 -42.8892612990909 180.0 -91.93719771798285 -4.7201511742868885 180.0
-0.14233766838732873 -0.18652764938306254 0.08233086902200494 -2.8901829237727497 14.397515879191408 14.385325560732282 -3.123465730696201 1.0303626389571952 -13.325867666345522 -2.797756381803057 1.7347481484188183 -13.368088597488015 -39.39827617843715 -6.050221485176303 -121.79165039152451 -162.7096605240358 39.233071057979586 160.93362341731972 -175.10929585848925 24.398054690238936 180.0 -25.129802177120506 -49.010209354155165 -33.965215383938705 29.478065861823865 4.076932566357053 -149.41321225900452 22.131331095001787 78.92569214100398 -1.7811106216195694e-13 34.813673584803745 29.455632002315475 161.02558666019738 -159.47196389904383 -72.02104490391767 -72.59597597387007 -154.78121476152694 -21.994010829815835 180.0 -111.74749602595607 32.1973788124991 180.0 117.02322449637312 -59.487063891777744 -160.8980766379935 -160.56255727696788 -44.716961754496865 180.0 -92.65904229703355 -3.187662064368215 180.0
-0.14403050172340012 -0.18283023234101523 0.08239443126233756 -2.845017307737028 14.545067856631485 14.4200709383053 -3.113286158952445 1.0746584473952236 -13.156128604256997 -2.7825296602977367 1.7682365304633305 -13.201127293501939 -39.131377375418765 -6.793878012342283 -121.34088087401949 -162.2732215955061 41.937352196295365 160.9056060916926 -175.2704722106797 22.362089086892347 180.0 -24.298117365190958 -48.76116926447888 -33.43750164643209 30.99219880636755 2.5161344731572037 -149.50000235124318 23.191190815593764 76.00478162150026 -0.0 34.564094218095 30.270948601536407 159.95581159893393 -162.5583612501564 -72.25148488823575 -74.59839394257563 -154.84856528928114 -23.436257117989673 180.0 -112.95290312219467 32.42653860269182 180.0 116.70293402345847 -59.32305686005099 -160.81148531509655 -160.36982418775304 -45.91086491947658 180.0 -93.35204228197935 -4.456354186674376 180.0
-0.146013622775167 -0.1800415941345572 0.08244048999420506 -2.7307885170790533 14.451398608198692 14.440508192329812 -3.0050925589442663 1.0902830950031 -13.11057241112231 -2.6750583991794965 1.756448201661205 -13.15567190338445 -39.063757493905825 -7.811018601993612 -120.4221601800325 -162.1043100060293 44.46536481632276 160.56067238755872 -175.47815122737094 19.678989707310397 180.0 -23.928103020763416 -48.6858636583748 -33.398962161413685 31.320574203208555 2.1516687920804003 -149.51959961657695 23.694089247216947 74.4479351696367 -7.63333123551244e-14 34.685637526942756 30.754695185766135 159.259747784954 -163.65956454976993 -72.93766436359701 -74.54326901319331 -155.28211222373213 -24.617500470955324 180.0 -113.81343153112414 32.41860314156447 180.0 115.81567083056568 -59.08044865147294 -161.28682152934056 -160.39239141677373 -46.615423276043 180.0 -94.21446660783961 -4.674925993825502 180.0
-0.14728119357149427 -0.17772255011199045 0.08401636320528963 -2.6455194104345563 14.419545263238431 14.393219255292694 -2.9332247798308857 1.1010703238782644 -13.018980196077141 -2.6054285842513343 1.7463684676390747 -13.064142592275559 -39.091852182788216 -8.169669322280125 -120.04393392197412 -161.17342705958683 46.89912871183037 159.93109927266755 -175.3584424749142 16.929651835775534 180.0 -23.110310405499238 -48.42117285075443 -33.002351712294704 31.941276499461463 1.6216241689381492 -149.576235520856 24.14326436177408 70.40100208623761 -0.0 35.338707907491376 32.877744671190904 157.09425823533326 -160.98595417064956 -72.70666526538677 -70.75342268958137 -155.5113276921395 -27.787262673151844 180.0 -113.8571034505581 32.57436770937041 180.0 115.4578730972551 -59.31579361864904 -161.41027155875625 -160.4754621792781 -46.88760966691152 180.0 -94.19851186967956 -5.067689561247637 180.0
-0.14897776152422934 -0.17599640887333423 0.08740711041989067 -2.4769013014767722 14.418297968005968 13.884600578929573 -2.842837256472218 1.0536945811549072 -12.76120770609816 -2.5360052746631347 1.6672284923256202 -12.80300918845062 -39.55720666989146 -8.173960475400648 -119.89370444135663 -159.09453954291268 51.165856299250144 158.82657853752454 -174.94853238702223 12.146539679586434 180.0 -21.77211512393432 -48.14172917484583 -32.07827472684131 32.576729040049976 0.6309279108367541 -149.74831446549962 24.768304832891317 67.22955389222538 -0.0 35.69937399541869 33.605710385767445 155.42762815161936 -157.64667267524396 -71.91681890636892 -66.66991337993518 -155.62910547043694 -27.903955609341516 180.0 -115.00138211690324 32.861563243871515 180.0 114.7175260197845 -58.97254919472259 -161.97784496014302 -160.75053742659904 -47.4863607913731 180.0 -94.11817504498875 -6.0836701833040285 180.0
